<?xml version="1.0" standalone="no"?>
<!DOCTYPE svg PUBLIC "-//W3C//DTD SVG 20010904//EN"
 "http://www.w3.org/TR/2001/REC-SVG-20010904/DTD/svg10.dtd">
<svg version="1.0" xmlns="http://www.w3.org/2000/svg"
 width="728.000000pt" height="335.000000pt" viewBox="0 0 728.000000 335.000000"
 preserveAspectRatio="xMidYMid meet">

<g transform="translate(0.000000,335.000000) scale(0.100000,-0.100000)"
fill="#000000" stroke="none">
<path d="M2459 3194 c-8 -9 -25 -36 -39 -59 -14 -24 -37 -61 -52 -84 -42 -62
-138 -250 -138 -270 0 -10 -20 -57 -45 -104 -25 -48 -45 -98 -45 -111 0 -13
14 -40 30 -61 43 -54 39 -71 -10 -39 -24 16 -46 24 -57 20 -14 -6 -6 -17 42
-61 65 -59 67 -70 5 -29 -21 14 -45 24 -52 21 -8 -3 -1 -10 17 -17 47 -20 14
-22 -66 -5 -41 8 -93 15 -117 15 -35 0 -43 3 -40 17 2 9 19 21 38 27 27 9 36
17 38 39 3 21 -1 27 -15 27 -13 0 -9 6 14 20 18 11 35 30 38 42 6 27 -10 302
-24 403 -12 87 -26 125 -45 125 -27 0 -120 -140 -160 -240 -43 -105 -77 -222
-78 -259 0 -23 14 -39 52 -61 31 -18 -1 -21 -45 -5 -25 10 -49 15 -52 11 -4
-4 3 -9 16 -13 12 -3 20 -11 17 -18 -3 -8 7 -15 28 -19 28 -5 32 -10 33 -40 0
-30 -4 -35 -43 -55 -53 -25 -54 -25 -54 -7 0 8 -10 16 -23 20 -13 3 -31 20
-40 38 -30 57 -129 174 -190 225 -15 12 -27 32 -27 45 0 34 -61 178 -76 178
-15 0 -24 -25 -26 -74 -2 -51 -12 -53 -31 -6 -34 87 -53 34 -43 -120 5 -83 3
-115 -8 -142 -22 -52 -19 -248 4 -310 17 -46 17 -47 -2 -65 -16 -15 -21 -15
-28 -3 -5 8 -10 12 -12 10 -65 -88 -155 -254 -168 -312 -22 -96 -34 -116 -82
-128 -72 -19 -75 -20 -102 -41 -19 -15 -26 -30 -26 -57 0 -19 -6 -51 -12 -69
-12 -32 -15 -34 -45 -28 -43 8 -43 -9 0 -21 20 -6 33 -17 35 -30 2 -16 -7 -23
-55 -37 -64 -19 -90 -33 -82 -41 3 -4 32 3 64 14 32 11 60 18 62 16 8 -8 -10
-58 -23 -63 -19 -7 -18 -23 2 -23 8 0 22 -16 30 -35 19 -45 18 -55 -5 -55 -35
0 -51 -12 -51 -36 0 -15 -18 -43 -50 -76 -27 -28 -50 -53 -50 -54 0 -11 -94
-103 -127 -124 -23 -15 -40 -30 -36 -34 4 -3 -5 -19 -18 -34 -14 -15 -41 -58
-60 -97 -19 -38 -46 -87 -61 -109 -15 -21 -30 -55 -34 -75 -4 -20 -12 -47 -19
-61 -6 -14 -12 -47 -12 -75 l-1 -50 17 60 c25 85 45 116 83 132 41 18 71 10
92 -22 21 -31 44 -32 55 -2 10 26 0 181 -12 193 -4 4 -28 -2 -52 -14 -36 -17
-45 -19 -45 -7 0 7 9 21 21 29 12 8 18 19 14 26 -4 6 5 20 19 31 14 11 26 26
26 34 0 19 47 70 117 126 91 73 218 124 247 100 8 -6 33 -13 57 -16 53 -5 94
-21 139 -55 54 -41 130 -82 130 -71 0 6 -14 18 -32 27 -17 9 -53 33 -79 54
-26 20 -69 42 -95 49 -27 7 -59 17 -72 22 -43 17 -124 10 -179 -16 -29 -13
-53 -21 -53 -18 0 4 15 20 32 37 18 17 48 50 67 74 19 23 40 42 48 42 15 0 12
45 -7 79 -8 16 -10 40 -5 75 5 28 9 73 11 99 1 27 10 59 18 72 9 13 13 31 10
39 -3 9 -3 28 0 42 6 22 11 25 34 20 31 -8 72 -49 72 -74 0 -14 2 -14 9 -3 13
20 3 42 -33 73 l-31 27 25 0 c43 1 100 -11 100 -21 0 -5 9 -18 20 -30 18 -19
20 -20 20 -4 0 10 -14 31 -30 46 -37 34 -38 48 -5 60 15 6 25 17 25 29 0 11 3
27 7 37 4 12 3 15 -5 10 -28 -17 -7 41 61 171 27 51 53 90 59 87 5 -3 12 3 15
15 3 12 13 21 24 21 10 0 26 12 35 26 15 21 23 25 49 20 25 -5 36 -1 56 20 58
63 345 161 500 171 95 6 275 -11 296 -29 9 -8 10 -14 3 -23 -9 -10 2 -14 47
-17 32 -2 60 -3 62 -1 2 1 6 33 8 70 5 68 -15 143 -36 143 -24 0 -20 43 7 102
17 35 41 95 56 135 23 65 37 94 98 206 32 58 143 227 149 227 20 0 67 -306 72
-470 4 -164 -2 -258 -19 -274 -8 -9 -41 -23 -72 -32 -74 -21 -92 -38 -92 -84
0 -20 -7 -45 -15 -56 -22 -30 -19 -45 9 -38 16 4 39 -2 68 -19 24 -14 61 -31
83 -37 55 -16 84 -38 66 -49 -11 -7 -6 -13 20 -26 19 -10 45 -26 58 -36 l24
-19 -29 0 c-29 -1 -29 -1 10 -20 45 -23 70 -51 53 -62 -6 -4 2 -17 21 -33 18
-15 31 -32 30 -39 -1 -6 15 -28 35 -49 20 -21 37 -48 37 -61 0 -12 11 -37 25
-56 14 -19 25 -40 25 -48 0 -8 20 -65 45 -127 25 -63 53 -138 61 -167 21 -75
24 -81 29 -76 15 15 -85 311 -141 420 -8 14 -14 32 -14 39 0 6 -15 35 -34 63
-18 28 -42 67 -53 86 -39 71 -93 149 -118 168 -14 11 -25 25 -25 30 0 18 -62
58 -124 81 -32 12 -68 28 -80 36 -20 15 -20 15 7 15 16 0 26 4 22 10 -3 6 -17
10 -30 10 -13 0 -27 5 -31 11 -6 11 25 8 79 -7 9 -3 17 -1 17 4 0 6 -24 16
-52 23 -37 9 -46 14 -30 17 12 2 47 -4 78 -13 31 -9 58 -14 60 -12 11 11 -27
27 -85 36 -85 14 -88 21 -10 22 55 1 60 2 34 10 -16 5 -42 7 -57 5 -51 -10
-29 11 30 28 71 20 78 25 91 59 32 82 -4 605 -48 720 -12 31 -41 36 -62 11z
m-495 -249 c8 -71 17 -185 20 -253 l5 -122 -49 -25 c-28 -14 -50 -30 -50 -35
0 -6 17 -10 38 -11 36 -1 36 -1 9 -9 -16 -5 -35 -6 -43 -3 -9 3 -14 -2 -14
-17 0 -44 -18 -60 -66 -60 l-45 0 1 53 c3 86 1 93 -25 107 -16 8 -25 22 -25
37 0 33 45 186 81 274 35 84 126 217 139 203 5 -5 16 -67 24 -139z m-654 -95
c0 -6 9 -30 20 -52 11 -23 20 -54 20 -70 0 -31 23 -59 68 -82 16 -8 42 -37 57
-63 15 -26 42 -64 60 -83 18 -19 36 -45 39 -57 4 -12 16 -25 27 -28 41 -13 20
-32 -76 -68 -129 -47 -190 -75 -228 -107 -21 -18 -44 -29 -52 -26 -31 11 -55
82 -55 160 0 41 5 78 10 81 14 8 13 58 -1 72 -9 9 -8 18 5 37 18 29 21 84 5
140 -6 22 -8 59 -4 85 l7 46 19 -35 c13 -25 18 -57 19 -108 0 -105 16 -81 23
35 3 54 8 106 12 116 8 19 25 23 25 7z m-123 -372 c-3 -7 -5 -2 -5 12 0 14 2
19 5 13 2 -7 2 -19 0 -25z m997 -53 c11 -8 17 -17 15 -20 -3 -2 -21 9 -40 26
-33 29 -14 25 25 -6z m-1738 -1712 l5 -88 -21 33 c-25 37 -61 42 -110 17 -73
-38 -26 42 56 97 32 21 60 36 62 34 2 -3 6 -44 8 -93z"/>
<path d="M1253 2542 c-24 -15 -19 -68 8 -82 42 -23 78 40 43 74 -17 17 -33 20
-51 8z m45 -45 c3 -21 -1 -27 -16 -27 -22 0 -34 22 -25 45 9 25 38 13 41 -18z"/>
<path d="M1265 2510 c-4 -6 -3 -16 3 -22 6 -6 12 -6 17 2 4 6 3 16 -3 22 -6 6
-12 6 -17 -2z"/>
<path d="M1708 2473 c7 -3 16 -2 19 1 4 3 -2 6 -13 5 -11 0 -14 -3 -6 -6z"/>
<path d="M1708 2443 c7 -3 16 -2 19 1 4 3 -2 6 -13 5 -11 0 -14 -3 -6 -6z"/>
<path d="M2130 2303 c0 -5 14 -9 30 -10 17 -1 30 2 30 7 0 6 -13 10 -30 10
-16 0 -30 -3 -30 -7z"/>
<path d="M1286 1867 c-13 -13 -29 -42 -35 -63 -23 -85 -18 -129 18 -165 24
-23 38 -29 73 -29 49 0 114 27 142 59 11 11 28 21 39 21 18 0 19 2 5 18 -9 9
-21 40 -27 67 -7 28 -22 64 -35 80 -21 25 -31 29 -89 33 -60 4 -68 2 -91 -21z
m128 -1 c25 -10 38 -26 55 -65 30 -71 25 -109 -18 -138 -48 -32 -94 -43 -136
-32 -48 13 -59 39 -52 117 8 77 24 105 69 119 45 15 44 15 82 -1z"/>
<path d="M1284 1766 c-10 -41 -1 -71 21 -71 17 0 20 8 23 48 3 42 1 47 -17 47
-13 0 -23 -8 -27 -24z"/>
<path d="M1017 1843 c-4 -3 -7 -18 -6 -32 1 -26 1 -25 10 3 9 31 7 41 -4 29z"/>
<path d="M1030 1810 c0 -5 5 -10 10 -10 6 0 10 5 10 10 0 6 -4 10 -10 10 -5 0
-10 -4 -10 -10z"/>
<path d="M1080 1790 c0 -5 5 -10 11 -10 5 0 7 5 4 10 -3 6 -8 10 -11 10 -2 0
-4 -4 -4 -10z"/>
<path d="M814 1645 c-8 -21 -3 -25 24 -18 13 3 21 11 19 17 -6 18 -37 19 -43
1z"/>
<path d="M1310 1462 c0 -16 42 -22 254 -37 111 -8 228 -19 261 -25 76 -13 102
-13 89 -1 -10 10 -104 25 -314 47 -211 24 -290 28 -290 16z"/>
<path d="M1172 1415 c3 -3 25 -9 49 -14 l44 -9 -38 -1 c-56 -2 -37 -17 30 -25
32 -3 73 -9 92 -12 24 -5 32 -3 27 5 -4 6 -1 11 8 11 8 0 19 -6 23 -14 9 -15
108 -47 293 -95 107 -27 155 -35 205 -32 73 4 -116 66 -365 120 -52 11 -142
32 -200 46 -95 23 -181 33 -168 20z m181 -42 c-7 -2 -19 -2 -25 0 -7 3 -2 5
12 5 14 0 19 -2 13 -5z m254 -59 c-3 -3 -12 -4 -19 -1 -8 3 -5 6 6 6 11 1 17
-2 13 -5z m151 -33 c112 -29 144 -41 106 -41 -20 0 -236 58 -243 66 -10 9 30
2 137 -25z"/>
<path d="M5316 1402 c-3 -5 -1 -25 5 -45 7 -26 16 -37 29 -37 27 0 33 16 20
55 -11 33 -41 48 -54 27z"/>
<path d="M3583 1390 c-20 -8 -21 -11 -9 -52 11 -35 18 -43 37 -43 27 0 29 22
7 74 -11 24 -17 27 -35 21z"/>
<path d="M3648 1395 c-8 -9 26 -95 37 -95 5 0 16 4 24 9 24 15 -5 91 -34 91
-12 0 -24 -2 -27 -5z"/>
<path d="M4754 1394 c-9 -4 -8 -16 1 -47 11 -35 17 -42 36 -39 31 3 31 3 16
48 -13 37 -29 48 -53 38z"/>
<path d="M5224 1384 c3 -9 9 -27 12 -40 l6 -24 -191 0 -191 0 0 -35 0 -35 191
0 191 0 -7 -37 c-11 -60 -53 -139 -95 -181 -30 -29 -60 -45 -130 -67 -49 -16
-90 -33 -90 -37 0 -5 7 -22 15 -38 14 -27 17 -28 52 -18 149 40 272 161 308
303 13 52 22 145 14 145 -5 0 -14 18 -20 40 -11 35 -16 40 -42 40 -23 0 -28
-4 -23 -16z"/>
<path d="M5990 1374 c-26 -73 -36 -92 -65 -139 -18 -27 -39 -56 -48 -63 -12
-11 -13 -19 -5 -43 12 -35 15 -35 45 -7 l23 21 0 -151 0 -152 35 0 35 0 0 208
c0 201 1 211 26 271 14 35 24 65 22 66 -2 2 -15 6 -30 10 -24 6 -29 3 -38 -21z"/>
<path d="M6130 1385 c0 -25 -48 -125 -80 -165 -30 -38 -30 -40 -14 -65 9 -14
18 -25 19 -25 2 0 24 29 50 65 25 36 50 65 56 65 5 0 9 -84 9 -210 l0 -210 35
0 35 0 0 65 0 65 90 0 90 0 0 30 0 30 -90 0 -90 0 0 40 0 40 90 0 90 0 0 30 0
30 -67 2 c-38 1 -78 1 -90 0 -21 -1 -23 4 -23 43 l0 44 98 3 c96 3 97 3 97 28
l0 25 -127 3 c-71 1 -128 4 -128 7 0 2 5 16 10 31 8 21 8 29 -2 36 -22 13 -58
9 -58 -7z"/>
<path d="M4660 1384 c0 -3 5 -25 11 -50 9 -33 16 -44 31 -44 26 0 32 22 18 65
-9 27 -17 35 -36 35 -13 0 -24 -3 -24 -6z"/>
<path d="M2866 1333 c-41 -81 -101 -147 -166 -183 -12 -7 -12 -11 4 -29 11
-12 24 -21 30 -21 6 0 43 32 81 70 l70 70 107 0 107 0 -9 -27 c-18 -63 -53
-123 -69 -123 -4 0 -36 18 -71 41 -59 38 -63 39 -81 23 -11 -9 -19 -22 -19
-28 0 -6 27 -28 60 -48 33 -20 60 -42 60 -47 0 -21 -119 -88 -197 -111 -48
-15 -50 -19 -25 -49 l17 -22 65 20 c104 32 203 103 260 186 35 51 76 148 85
203 l7 42 -126 0 c-115 0 -146 7 -116 25 15 9 12 45 -4 45 -8 0 -21 3 -30 6
-10 4 -22 -8 -40 -43z"/>
<path d="M6540 1275 l0 -105 210 0 210 0 0 105 0 105 -210 0 -210 0 0 -105z
m358 -6 l-3 -44 -133 -3 c-74 -2 -139 -1 -146 1 -7 3 -10 21 -8 51 l4 45 136
3 c76 2 141 0 145 -3 5 -4 7 -26 5 -50z"/>
<path d="M4048 1325 l4 -45 -151 0 -151 0 0 -35 0 -35 125 0 c69 0 125 -3 125
-7 0 -8 -46 -69 -80 -106 -14 -15 -58 -53 -97 -84 l-73 -55 21 -29 20 -29 42
29 c45 30 141 126 178 176 37 49 41 52 38 25 -1 -14 -1 -80 -1 -147 l2 -123
36 0 37 0 -6 106 c-3 58 -3 137 0 175 l6 69 63 0 64 0 0 35 0 35 -70 0 -70 0
0 45 c0 44 -1 45 -33 45 -32 0 -32 0 -29 -45z"/>
<path d="M5740 1204 c0 -141 -2 -160 -22 -195 -24 -43 -40 -51 -156 -75 l-83
-17 7 -31 c3 -17 7 -32 8 -33 1 -2 36 3 77 10 117 21 185 62 220 134 20 42 23
67 27 206 l4 157 -41 0 -41 0 0 -156z"/>
<path d="M2190 1315 l0 -35 148 0 c82 0 151 -3 154 -6 4 -3 0 -21 -8 -39 -42
-102 -168 -236 -262 -281 -34 -16 -61 -31 -61 -34 0 -3 9 -16 20 -30 l21 -24
54 28 c29 15 83 55 119 89 l66 60 93 -92 92 -91 22 29 c12 17 22 34 22 39 0 4
-21 25 -47 45 -27 21 -70 57 -97 81 l-49 45 33 51 c36 56 79 155 80 183 0 16
-16 17 -200 17 l-200 0 0 -35z"/>
<path d="M3253 1320 c-11 -28 -10 -30 26 -41 20 -6 57 -20 83 -30 l48 -19 15
30 c17 33 18 32 -70 65 -83 32 -88 31 -102 -5z"/>
<path d="M4351 1324 c-6 -15 -10 -28 -9 -29 4 -4 130 -55 148 -61 10 -3 20 6
29 26 7 17 12 33 10 34 -6 5 -149 56 -158 56 -4 0 -13 -12 -20 -26z"/>
<path d="M5445 1190 l-1 -160 36 0 36 0 -1 160 0 160 -35 0 -35 0 0 -160z"/>
<path d="M798 1313 c6 -2 18 -2 25 0 6 3 1 5 -13 5 -14 0 -19 -2 -12 -5z"/>
<path d="M1290 1250 c0 -13 43 -34 137 -69 43 -16 94 -36 113 -44 148 -64 198
-75 134 -28 -55 41 -126 75 -239 116 -96 35 -145 43 -145 25z m138 -39 c153
-62 195 -81 190 -87 -3 -2 -65 21 -139 51 -178 74 -176 74 -161 74 8 1 57 -17
110 -38z"/>
<path d="M3587 1166 c-69 -138 -147 -195 -297 -214 l-55 -8 3 -34 c1 -19 5
-36 7 -38 7 -7 134 24 198 48 80 30 153 104 206 210 23 45 41 88 41 96 0 13
-29 34 -48 34 -5 0 -30 -42 -55 -94z"/>
<path d="M4720 1250 c0 -6 -16 -43 -36 -83 -63 -130 -151 -195 -282 -213 -67
-9 -76 -15 -67 -53 7 -35 8 -35 90 -17 166 35 274 128 344 295 22 52 22 55 5
68 -21 15 -54 17 -54 3z"/>
<path d="M3205 1189 c-4 -17 -5 -32 -3 -34 1 -2 37 -17 78 -33 69 -28 76 -29
88 -14 25 33 10 52 -66 83 -40 16 -77 29 -82 29 -5 0 -11 -14 -15 -31z"/>
<path d="M4301 1190 c-7 -17 -12 -32 -10 -34 2 -2 40 -17 84 -33 l80 -31 13
25 c19 36 10 49 -52 72 -96 36 -99 36 -115 1z"/>
<path d="M6490 981 l0 -139 24 -4 c17 -3 26 0 29 11 6 23 112 28 121 6 3 -8
17 -15 31 -15 l25 0 0 140 0 140 -115 0 -115 0 0 -139z m170 9 l0 -71 -57 3
-58 3 -3 68 -3 67 60 0 61 0 0 -70z"/>
<path d="M6769 1043 c0 -43 -1 -106 -2 -140 -2 -61 -2 -62 27 -66 21 -3 30 1
33 12 6 23 123 27 123 5 0 -9 11 -14 30 -14 l30 0 0 140 0 140 -120 0 -120 0
-1 -77z m181 -53 l0 -70 -60 0 -60 0 0 70 0 70 60 0 60 0 0 -70z"/>
<path d="M1130 971 c37 -31 42 -35 73 -50 15 -8 27 -17 27 -21 0 -4 24 -32 53
-64 59 -65 97 -128 97 -161 0 -13 7 -28 15 -35 8 -7 17 -27 21 -45 3 -19 15
-41 25 -51 11 -10 19 -30 19 -50 0 -59 22 -187 30 -173 4 8 4 37 0 64 -5 28
-9 71 -9 96 -1 33 -7 51 -21 64 -11 10 -20 25 -20 34 0 9 -9 35 -20 56 -11 22
-25 56 -30 75 -11 41 -147 208 -185 228 -14 7 -25 16 -25 21 0 5 -8 11 -17 14
-10 2 -27 8 -38 12 -16 5 -15 3 5 -14z"/>
<path d="M3357 753 c678 -2 1788 -2 2465 0 678 1 124 2 -1232 2 -1356 0 -1910
-1 -1233 -2z"/>
<path d="M690 621 c-51 -32 -110 -86 -110 -101 0 -6 26 -10 59 -10 56 0 60 -2
100 -45 22 -24 41 -49 41 -54 0 -15 33 -22 42 -9 25 40 -6 219 -42 238 -28 15
-41 12 -90 -19z m100 -36 c15 -31 22 -64 22 -106 0 -57 -10 -88 -19 -62 -2 6
-18 30 -34 53 -32 43 -62 60 -110 60 -16 0 -29 5 -29 10 0 6 4 10 9 10 4 0 19
10 33 23 31 27 79 56 95 57 6 0 21 -20 33 -45z"/>
<path d="M2805 609 c-30 -27 -35 -37 -35 -74 0 -36 5 -48 32 -70 17 -15 55
-37 84 -50 61 -27 78 -53 69 -102 -13 -70 -117 -79 -142 -12 -10 26 -16 30
-35 24 -32 -10 -32 -11 -19 -44 21 -48 55 -73 108 -78 72 -6 112 19 135 88 10
30 16 64 13 76 -8 32 -48 66 -115 98 -66 32 -88 61 -71 93 16 30 76 39 111 18
53 -31 82 6 34 43 -20 15 -41 21 -80 21 -45 0 -59 -5 -89 -31z"/>
<path d="M3039 638 c0 -2 -2 -13 -3 -25 -2 -21 1 -23 51 -23 l53 0 0 -190 0
-190 25 0 c23 0 25 4 25 48 0 26 2 110 3 187 l2 140 53 3 c48 3 52 5 52 28 l0
24 -130 0 c-71 0 -130 -1 -131 -2z"/>
<path d="M3330 478 c0 -135 3 -169 18 -197 28 -56 64 -76 137 -76 73 0 110 20
137 76 19 39 20 56 19 232 l-1 127 -24 0 -24 0 -4 -158 c-3 -171 -12 -200 -64
-224 -35 -16 -92 1 -118 35 -19 26 -21 45 -25 188 l-3 159 -24 0 -24 0 0 -162z"/>
<path d="M3710 425 l0 -215 78 0 c85 1 135 15 181 51 97 77 95 261 -4 328 -46
31 -124 51 -197 51 l-58 0 0 -215z m197 135 c88 -38 109 -186 36 -254 -27 -26
-91 -46 -142 -46 l-31 0 0 164 0 164 48 -5 c26 -3 66 -13 89 -23z"/>
<path d="M4090 425 l0 -215 30 0 30 0 0 215 0 215 -30 0 -30 0 0 -215z"/>
<path d="M4307 610 c-27 -17 -60 -50 -77 -77 -39 -62 -42 -147 -7 -214 73
-137 263 -160 365 -44 80 91 81 201 5 286 -52 58 -100 79 -176 79 -53 0 -71
-5 -110 -30z m204 -41 c77 -39 104 -172 50 -248 -25 -35 -95 -71 -137 -71 -49
1 -110 35 -140 79 -23 36 -26 48 -22 104 6 105 59 156 161 157 29 0 63 -8 88
-21z"/>
<path d="M4965 624 c-43 -22 -84 -63 -107 -108 -29 -58 -23 -158 15 -215 76
-115 230 -135 323 -43 34 35 52 71 60 121 l7 41 -91 0 c-85 0 -90 -1 -85 -20
5 -19 23 -24 81 -22 27 1 28 -8 2 -57 -35 -69 -134 -91 -202 -45 -69 48 -97
147 -62 220 48 102 177 131 261 60 25 -21 31 -22 47 -10 19 13 19 14 1 34 -50
55 -183 79 -250 44z"/>
<path d="M5300 425 l0 -215 30 0 30 0 0 100 0 100 100 0 100 0 0 -100 c0 -99
0 -100 24 -100 13 0 26 6 28 13 2 6 3 102 3 212 l-1 200 -27 3 -27 3 0 -88 0
-88 -100 -1 -100 -1 0 89 0 88 -30 0 -30 0 0 -215z"/>
<path d="M5690 425 l0 -215 28 0 27 0 0 143 c0 78 -2 175 -3 215 -2 70 -3 72
-27 72 l-25 0 0 -215z"/>
<path d="M5820 426 l0 -216 55 0 c75 0 150 18 170 40 25 28 29 89 8 129 -15
29 -28 41 -61 58 -2 1 6 11 17 22 24 24 28 75 9 116 -16 36 -61 57 -135 63
l-63 5 0 -217z m142 137 c44 -40 7 -113 -57 -113 l-36 0 5 68 c3 37 5 69 6 71
1 9 66 -11 82 -26z m25 -179 c60 -38 29 -113 -52 -127 -26 -4 -49 -6 -51 -4
-6 5 -13 140 -8 148 6 11 86 -2 111 -17z"/>
<path d="M6130 425 l0 -215 95 0 c95 0 95 0 95 25 0 24 -2 25 -70 25 l-70 0 0
190 0 190 -25 0 -25 0 0 -215z"/>
<path d="M6348 578 c-2 -35 -3 -132 -3 -215 l0 -153 28 0 27 0 0 215 0 215
-25 0 c-24 0 -25 -3 -27 -62z"/>
<path d="M1064 294 c-30 -32 -54 -64 -54 -71 0 -9 15 -13 49 -13 41 0 56 -5
91 -35 68 -57 83 -48 73 45 -7 76 -36 124 -77 128 -24 3 -38 -6 -82 -54z m116
6 c24 -33 36 -140 17 -140 -8 0 -22 10 -33 21 -23 27 -74 49 -111 49 -27 1
-27 2 26 51 29 27 60 49 69 47 8 -2 23 -14 32 -28z"/>
</g>
</svg>
